# xmcd
#
# Track frame offsets: 
#        150
#        21045
#        39772
#        60802
#        83130
#        100847
#        119665
#        137865
#        157610
#        179832
#
# Disc length: 2699 seconds
#
# Revision: 0
# Processed by: cddbd v1.5.2PL0 Copyright (c) Steve Scherf et al.
# Submitted via: ExactAudioCopy v1.0b1
#
DISCID=740a890a
DTITLE=王杰 - 为了爱，梦一生
DYEAR=1991
DGENRE=Pop
TTITLE0=為了愛,夢一生
TTITLE1=那段血淚汗的日子
TTITLE2=獨自在暴風雨中
TTITLE3=如果你真的在乎我
TTITLE4=今生錯過了說愛
TTITLE5=永遠相信愛情
TTITLE6=不要從我的眼中離開
TTITLE7=我依然在你熟悉的地方等你
TTITLE8=為什麼
TTITLE9=你是我永遠珍惜的朋友
EXTD=
EXTT0=
EXTT1=
EXTT2=
EXTT3=
EXTT4=
EXTT5=
EXTT6=
EXTT7=
EXTT8=
EXTT9=
PLAYORDER=
